<?xml version="1.0" encoding="UTF-8"?>
<svg id="Layer_1" data-name="Layer 1" xmlns="http://www.w3.org/2000/svg" version="1.1" viewBox="0 0 512 512" height="1024px" width="1024px">
  <defs>
    <style>
      .cls-1, .cls-2 {
        stroke-width: 0px;
      }
      .cls-1 {
        fill: #000;
      }

      .cls-2 {
        fill: #fefafc;
      }

      .cls-3 {
        fill: black;
      }
    </style>
    <linearGradient id="gradient" x1="0" x2="1" y1="1" y2="0.42">
      <stop offset="0%" stop-color="#f44eb7" />
      <stop offset="100%" stop-color="#2fe1f9" />
    </linearGradient>
    <mask id="mask">
        <rect fill="black" x="0" y="0" width="512" height="512"/>
        <path fill="white" d="M93.7,377.1v-247.5h47.8v247.5h-47.8Z"/>
        <path fill="white" d="M218.9,379.4c-17.9,0-32.3-5.6-43.2-16.7-10.9-11.2-16.4-26.8-16.4-46.8v-114.2c0-24,4.8-42.4,14.3-55.1,9.5-12.7,25-19.1,46.5-19.1s22.1,2.2,31.3,6.5c9.1,4.3,16.3,10.8,21.6,19.3,5.2,8.6,7.9,19.4,7.9,32.4v42.8h-49.2v-36.6c0-7.4-.9-12.4-2.8-15-1.9-2.6-4.8-3.9-8.7-3.9s-7.7,1.7-9.3,5c-1.6,3.3-2.4,7.8-2.4,13.3v123.9c0,6.8,1,11.7,3,14.5,2,2.8,4.9,4.2,8.6,4.2s7.2-1.7,8.9-5.2c1.7-3.5,2.6-8,2.6-13.5v-44.6h49.8v46.8c0,21.8-5.5,37.5-16.5,47.3-11,9.8-26.3,14.7-46,14.7Z"/>
        <path fill="white" d="M356.9,379.4c-19.8,0-34.9-6-45.4-17.9-10.5-12-15.7-29.2-15.7-51.8v-117.6c0-21.2,5.2-37.3,15.5-48.2,10.4-11,25.5-16.5,45.5-16.5s35.1,5.5,45.5,16.5c10.4,11,15.5,27,15.5,48.2v117.6c0,22.6-5.2,39.9-15.7,51.8-10.5,12-25.6,17.9-45.4,17.9ZM357.3,333.8c7.5,0,11.2-7.3,11.2-21.8v-120.8c0-12.2-3.7-18.3-11-18.3s-12.4,6.2-12.4,18.7v120.7c0,7.7.9,13.2,2.8,16.5,1.9,3.3,5,5,9.3,5Z"/>

    </mask>
  </defs>
  <g>
    <circle class="cls-3" cx="256" cy="256" r="256" />
    <!-- <rect class="cls-2" x="0" y="0" width="512" height="512"/> -->
  </g>
  <g>
    <rect x="93" y="128" width="324" height="250" fill="url(#gradient)" mask="url(#mask)"/>
  </g>
</svg>